# xmcd
#
# Track frame offsets:
# 150
# 16650
# 32705
# 51645
# 85845
# 101620
# 112400
# 128410
# 139750
# 151475
# 161765
# 173165
# 189115
# 201360
#
# Disc length: 2842 seconds
#
#
# Revision: 0
# Processed by: cddbd v1.5.2PL0 Copyright (c) Steve Scherf et al.
# Submitted via: FreeRIP 2.951 
#
DISCID=ba0b180e
DTITLE=Antonio Molina, Rafael Farina, Lola Flores e outros - A Musica Ibero Americana
DYEAR=1996
DGENRE=Ibero Americana
TTITLE0=Suspiros de España_A. Alvares_J.A. Alvarez
TTITLE1=Como En España_Laredo
TTITLE2=Mi Salamanca_Gomez_Salazar_Pitto
TTITLE3=El Sitio de Zaragoza_ Oudrid
TTITLE4=Y Viva España_L. Caers
TTITLE5=Islas Canarias_J. M. Tarridas
TTITLE6=Gargo Y Salero de España_Murillo_G. Morcillo
TTITLE7=La Gran Via_Chueca, Pérez Capô, Pérez González, Valverde Durán
TTITLE8=Doña Francisquita_A. Vives, Romero, Fernández Shaw
TTITLE9=Esto Es Sevilla_ A. Garcia Cano, S. Guerrero
TTITLE10=España_ R. Cabrera
TTITLE11=Granada_ Lara
TTITLE12=Dama de España_Livingston, Evans
TTITLE13=En Aranjuez Con Tu Amor_ J. Rodrigo
EXTD=Espanha I
EXTT0=Lolita Sevilla
EXTT1=A. Molina
EXTT2=Rafael Farina
EXTT3=Orq. La Principal
EXTT4=Samanta Rios
EXTT5=Banda Taurina
EXTT6=Lolita Sevilla
EXTT7=Orq. Sinfônica_lírica
EXTT8=Orq. Sinfônica - Lírica
EXTT9=Lola Flores
EXTT10=Antonio Machin
EXTT11=Banda Unión Musical- lírica
EXTT12=Tuna Universitaria
EXTT13=Raultimor and Orq.
PLAYORDER=
